# xmcd CD database file
#
# Track frame offsets:
#	150
#	900
#	1650
#	2400
#	3150
#	3900
#	4650
#	5400
#	6150
#	6900
#	7650
#	8400
#	211986
#
# Disc length: 4440 seconds
#
# Revision: 0
# Processed by: cddbd v1.5.1PL0 Copyright (c) Steve Scherf et al.
# Submitted via: CDex 1.51
#
DISCID=5a11560d
DTITLE=Kings of Convenience - Riot on an Empty Street
DYEAR=2004
DGENRE=Jazz
TTITLE0=Homesick
TTITLE1=Misread
TTITLE2=Cayman Islands
TTITLE3=Stay out of Trouble
TTITLE4=Kow-How
TTITLE5=Sorry or Please
TTITLE6=Love is No Big Truth
TTITLE7=I'd Rather Dance With You
TTITLE8=Living Long
TTITLE9=Surprise Ice
TTITLE10=Gold in the Air of Summer
TTITLE11=The Build-up
TTITLE12=bonus
EXTD=YEAR: 2004
EXTT0=
EXTT1=
EXTT2=
EXTT3=
EXTT4=
EXTT5=
EXTT6=
EXTT7=
EXTT8=
EXTT9=
EXTT10=
EXTT11=
EXTT12=
PLAYORDER=
